<?xml version="1.0" standalone="no"?><!DOCTYPE svg PUBLIC "-//W3C//DTD SVG 1.1//EN" "http://www.w3.org/Graphics/SVG/1.1/DTD/svg11.dtd"><svg t="1566117692250" class="icon" viewBox="0 0 1024 1024" version="1.1" xmlns="http://www.w3.org/2000/svg" p-id="3549" xmlns:xlink="http://www.w3.org/1999/xlink" width="200" height="200"><defs><style type="text/css"></style></defs><path d="M512.115925 69.818118a325.817886 325.817886 0 0 1 325.817885 325.817886c0 127.999884-77.730838 241.570689-207.825265 303.708815a588.799465 588.799465 0 0 0-117.99262 75.869022 581.817653 581.817653 0 0 0-117.99262-75.869022c-130.094427-62.138125-207.825266-175.708931-207.825266-302.54518a325.817886 325.817886 0 0 1 325.817886-325.817885m0-69.818119a395.636004 395.636004 0 0 0-395.636004 395.636004c0 166.167122 106.356267 299.287001 247.621593 366.777849a516.654076 516.654076 0 0 1 148.014411 107.985356 516.654076 516.654076 0 0 1 148.014411-107.985356c141.265326-67.490848 247.621593-200.610727 247.621593-366.777849a395.636004 395.636004 0 0 0-395.636004-395.636004z" fill="#616262" p-id="3550"></path><path d="M512.115925 314.181533a81.454471 81.454471 0 1 1-81.454472 81.454471 81.454471 81.454471 0 0 1 81.454472-81.454471m0-69.818119a151.27259 151.27259 0 1 0 151.272589 151.27259 151.27259 151.27259 0 0 0-151.272589-151.27259z" fill="#616262" p-id="3551"></path><path d="M512.115925 69.818118a325.817886 325.817886 0 0 1 325.817885 325.817886c0 127.999884-77.730838 241.570689-207.825265 303.708815a588.799465 588.799465 0 0 0-117.99262 75.869022 581.817653 581.817653 0 0 0-117.99262-75.869022c-130.094427-62.138125-207.825266-175.708931-207.825266-302.54518a325.817886 325.817886 0 0 1 325.817886-325.817885m0-69.818119a395.636004 395.636004 0 0 0-395.636004 395.636004c0 166.167122 106.356267 299.287001 247.621593 366.777849a516.654076 516.654076 0 0 1 148.014411 107.985356 516.654076 516.654076 0 0 1 148.014411-107.985356c141.265326-67.490848 247.621593-200.610727 247.621593-366.777849a395.636004 395.636004 0 0 0-395.636004-395.636004z" fill="#616262" p-id="3552"></path><path d="M512.115925 314.181533a81.454471 81.454471 0 1 1-81.454472 81.454471 81.454471 81.454471 0 0 1 81.454472-81.454471m0-69.818119a151.27259 151.27259 0 1 0 151.272589 151.27259 151.27259 151.27259 0 0 0-151.272589-151.27259zM994.791849 972.100934l-34.676332-302.545179A46.545412 46.545412 0 0 0 913.570105 628.363065h-29.32361a468.01412 468.01412 0 0 1-55.854494 69.818118h63.767214l30.254518 255.999768H101.818116l30.254518-255.999768h63.767215a465.454122 465.454122 0 0 1-55.621768-69.818118H111.359925a46.545412 46.545412 0 0 0-46.545412 41.19269L29.207273 972.100934A46.545412 46.545412 0 0 0 75.752685 1023.999069h872.726479a46.545412 46.545412 0 0 0 46.312685-51.898135z" fill="#616262" p-id="3553"></path></svg>