<?xml version="1.0" standalone="no"?><!DOCTYPE svg PUBLIC "-//W3C//DTD SVG 1.1//EN" "http://www.w3.org/Graphics/SVG/1.1/DTD/svg11.dtd"><svg t="1566117737512" class="icon" viewBox="0 0 1170 1024" version="1.1" xmlns="http://www.w3.org/2000/svg" p-id="4365" xmlns:xlink="http://www.w3.org/1999/xlink" width="228.515625" height="200"><defs><style type="text/css"></style></defs><path d="M12.190476 0h1024v1024H12.190476z" fill="#FFFFFF" fill-opacity="0" p-id="4366"></path><path d="M388.937143 853.333333a128.042667 128.042667 0 1 1 0-85.333333h369.92a106.666667 106.666667 0 1 0 0-213.333333h-469.333333a192 192 0 1 1 0-384h131.669333L366.025143 115.498667 426.35581 55.168 584.521143 213.333333 426.35581 371.498667 366.025143 311.168 421.193143 256H289.52381a106.666667 106.666667 0 0 0 0 213.333333h469.333333a192 192 0 1 1 0 384H388.937143zM268.190476 768a42.666667 42.666667 0 1 0 0 85.333333 42.666667 42.666667 0 0 0 0-85.333333zM780.190476 85.333333a128 128 0 1 1 0 256 128 128 0 0 1 0-256z m0 85.333334a42.666667 42.666667 0 1 0 0 85.333333 42.666667 42.666667 0 0 0 0-85.333333z" fill="#000000" p-id="4367"></path></svg>